<svg height="128" width="128" xmlns="http://www.w3.org/2000/svg"><rect x="2" y="2" width="124" height="124" rx="14" fill="#363d52" stroke="#212532" stroke-width="4"/><g transform="scale(10.666) translate(2, 2)"><path d="M11.5 2.5a1 1 0 0 0-1 1v3a1 1 0 0 0 1 1h3a1 1 0 0 0 1-1v-3a1 1 0 0 0-1-1h-3zM6.5 5a1 1 0 0 0-1 1v6a1 1 0 0 0 1 1h6a1 1 0 0 0 1-1v-6a1 1 0 0 0-1-1h-6z" fill="#478cbf"/><path d="M11.5 10.5a1 1 0 0 0-1 1v3a1 1 0 0 0 1 1h3a1 1 0 0 0 1-1v-3a1 1 0 0 0-1-1h-3z" fill="#478cbf"/></g></svg>